<svg version="1.1" id="Layer_1" xmlns="http://www.w3.org/2000/svg" xmlns:xlink="http://www.w3.org/1999/xlink" x="0px" y="0px" width="100%" viewBox="0 0 500 500" enable-background="new 0 0 500 500" xml:space="preserve">
<path fill="#000000" opacity="1.000000" stroke="none" d="&#xA;M1.000000,498.000000 &#xA;&#x9;C1.000000,332.380524 1.000000,166.761032 1.000000,1.070771 &#xA;&#x9;C167.571991,1.070771 334.144043,1.070771 501.000000,1.070771 &#xA;&#x9;C501.000000,166.358124 501.000000,331.716431 500.537354,497.537354 &#xA;&#x9;C333.716461,498.000000 167.358231,498.000000 1.000000,498.000000 &#xA;M23.999445,402.500000 &#xA;&#x9;C23.999445,426.595825 23.999445,450.691681 23.999445,474.712219 &#xA;&#x9;C175.644730,474.712219 326.713776,474.712219 477.711670,474.712219 &#xA;&#x9;C477.711670,324.354675 477.711670,174.285660 477.711670,24.287769 &#xA;&#x9;C326.354095,24.287769 175.285065,24.287769 23.999445,24.287769 &#xA;&#x9;C23.999445,150.217316 23.999445,275.858643 23.999445,402.500000 &#xA;z"></path>
<path fill="#FFFFFF" opacity="1.000000" stroke="none" d="&#xA;M1.000000,498.500000 &#xA;&#x9;C167.358231,498.000000 333.716461,498.000000 500.537354,498.000000 &#xA;&#x9;C500.951935,499.654388 501.618286,501.883789 498.495056,501.017883 &#xA;&#x9;C498.030731,500.889130 497.500000,501.000000 497.000000,501.000000 &#xA;&#x9;C333.000000,501.000000 169.000015,501.005554 5.000098,500.897156 &#xA;&#x9;C3.747584,500.896332 0.685159,502.963074 1.000000,498.500000 &#xA;z"></path>
<path fill="#FFFFFF" opacity="1.000000" stroke="none" d="&#xA;M23.999445,402.000000 &#xA;&#x9;C23.999445,275.858643 23.999445,150.217316 23.999445,24.287769 &#xA;&#x9;C175.285065,24.287769 326.354095,24.287769 477.711670,24.287769 &#xA;&#x9;C477.711670,174.285660 477.711670,324.354675 477.711670,474.712219 &#xA;&#x9;C326.713776,474.712219 175.644730,474.712219 23.999445,474.712219 &#xA;&#x9;C23.999445,450.691681 23.999445,426.595825 23.999445,402.000000 &#xA;M296.344177,270.810944 &#xA;&#x9;C288.156128,277.138214 283.213501,285.611023 280.404724,295.952515 &#xA;&#x9;C268.484467,267.372498 248.983719,256.140900 220.625259,261.041504 &#xA;&#x9;C199.000534,264.778503 183.267853,282.325867 182.087769,304.024139 &#xA;&#x9;C180.767990,328.290405 193.800018,347.319641 216.332016,353.347504 &#xA;&#x9;C229.591827,356.894897 242.721497,356.130615 255.316254,350.213806 &#xA;&#x9;C268.272614,344.127075 276.027313,333.599945 280.448395,319.626984 &#xA;&#x9;C285.470459,337.303345 296.378204,348.181793 313.225494,353.073578 &#xA;&#x9;C323.354706,356.014709 333.625244,356.054810 343.880066,353.892090 &#xA;&#x9;C364.470581,349.549561 378.060486,334.161835 380.594543,312.536285 &#xA;&#x9;C382.909149,292.783722 373.075256,273.657928 355.246094,265.653931 &#xA;&#x9;C335.184814,256.647858 315.460907,257.833923 296.344177,270.810944 &#xA;M122.956757,296.500000 &#xA;&#x9;C122.956757,316.251678 122.956757,336.003387 122.956757,355.681610 &#xA;&#x9;C131.318588,355.681610 139.060593,355.681610 147.244141,355.681610 &#xA;&#x9;C147.244141,313.210175 147.244141,271.024963 147.244141,228.802872 &#xA;&#x9;C151.320572,229.290741 154.938477,229.922180 158.578903,230.104843 &#xA;&#x9;C162.394821,230.296326 166.266312,230.369919 170.055252,229.958511 &#xA;&#x9;C214.224762,225.162689 222.396408,180.804733 206.352295,156.487869 &#xA;&#x9;C195.192032,139.573135 178.317780,134.173187 159.124557,135.265045 &#xA;&#x9;C140.712585,136.312454 125.318855,143.682526 117.155380,161.133392 &#xA;&#x9;C108.922569,178.732468 110.449669,196.018829 121.827972,212.135452 &#xA;&#x9;C122.506134,213.096039 123.055740,214.402756 123.056503,215.548798 &#xA;&#x9;C123.074219,242.199158 123.007706,268.849579 122.956757,296.500000 &#xA;M281.084167,185.518677 &#xA;&#x9;C281.084167,199.609055 281.084167,213.699432 281.084167,227.654480 &#xA;&#x9;C290.105225,227.654480 298.501312,227.654480 306.992706,227.654480 &#xA;&#x9;C306.992706,211.818161 306.922546,196.329422 307.046692,180.842224 &#xA;&#x9;C307.074432,177.380310 307.362366,173.809647 308.262604,170.487457 &#xA;&#x9;C310.478088,162.311783 317.380463,157.371948 325.679291,157.501358 &#xA;&#x9;C334.150238,157.633469 340.155029,162.572617 342.077057,171.416916 &#xA;&#x9;C342.775574,174.631119 342.962219,178.006042 342.981445,181.309952 &#xA;&#x9;C343.071411,196.752792 343.021362,212.196457 343.021362,227.651489 &#xA;&#x9;C352.010986,227.651489 360.550598,227.651489 369.052155,227.651489 &#xA;&#x9;C369.052155,208.641296 369.425934,189.973038 368.955139,171.326096 &#xA;&#x9;C368.398285,149.270889 352.892120,134.805008 330.889313,135.065659 &#xA;&#x9;C318.117706,135.216949 307.211700,139.726257 298.795776,149.623001 &#xA;&#x9;C285.936035,131.774170 257.507172,129.980728 240.904617,146.167099 &#xA;&#x9;C240.241058,143.972519 239.798233,141.862747 238.940872,139.937607 &#xA;&#x9;C238.495270,138.937042 237.342484,137.583282 236.466202,137.550888 &#xA;&#x9;C230.699570,137.337631 224.921219,137.440842 219.208496,137.440842 &#xA;&#x9;C219.208496,167.957657 219.208496,197.861969 219.208496,227.754578 &#xA;&#x9;C227.917511,227.754578 236.333298,227.754578 245.043304,227.754578 &#xA;&#x9;C245.043304,212.212997 244.971649,196.917145 245.095856,181.622879 &#xA;&#x9;C245.125351,177.990753 245.381607,174.253662 246.280197,170.756699 &#xA;&#x9;C248.445114,162.331635 255.491669,157.279327 263.986115,157.528961 &#xA;&#x9;C272.337799,157.774399 278.243866,162.472885 280.066071,171.149261 &#xA;&#x9;C280.977448,175.488724 280.780090,180.061020 281.084167,185.518677 &#xA;z"></path>
<path fill="#030303" opacity="1.000000" stroke="none" d="&#xA;M296.617188,270.579651 &#xA;&#x9;C315.460907,257.833923 335.184814,256.647858 355.246094,265.653931 &#xA;&#x9;C373.075256,273.657928 382.909149,292.783722 380.594543,312.536285 &#xA;&#x9;C378.060486,334.161835 364.470581,349.549561 343.880066,353.892090 &#xA;&#x9;C333.625244,356.054810 323.354706,356.014709 313.225494,353.073578 &#xA;&#x9;C296.378204,348.181793 285.470459,337.303345 280.448395,319.626984 &#xA;&#x9;C276.027313,333.599945 268.272614,344.127075 255.316254,350.213806 &#xA;&#x9;C242.721497,356.130615 229.591827,356.894897 216.332016,353.347504 &#xA;&#x9;C193.800018,347.319641 180.767990,328.290405 182.087769,304.024139 &#xA;&#x9;C183.267853,282.325867 199.000534,264.778503 220.625259,261.041504 &#xA;&#x9;C248.983719,256.140900 268.484467,267.372498 280.404724,295.952515 &#xA;&#x9;C283.213501,285.611023 288.156128,277.138214 296.617188,270.579651 &#xA;M246.602921,328.205353 &#xA;&#x9;C249.024490,325.497498 251.946548,323.076416 253.713043,319.993225 &#xA;&#x9;C255.190582,317.414368 256.646362,316.557526 259.462311,316.632355 &#xA;&#x9;C266.207672,316.811676 272.961029,316.690308 279.588440,316.690308 &#xA;&#x9;C279.588440,309.807861 279.588440,303.577606 279.588440,297.067810 &#xA;&#x9;C272.813507,297.067810 265.996979,296.917816 259.192291,297.136780 &#xA;&#x9;C256.194855,297.233246 254.558411,296.300323 252.845871,293.711487 &#xA;&#x9;C246.807190,284.582825 237.943054,281.289368 227.303375,282.966187 &#xA;&#x9;C218.266449,284.390411 212.286652,289.819214 209.343430,298.356781 &#xA;&#x9;C205.630234,309.127899 208.745987,321.159882 216.587051,327.576324 &#xA;&#x9;C224.607254,334.139374 235.526978,334.540680 246.602921,328.205353 &#xA;M342.036926,285.218536 &#xA;&#x9;C332.516144,281.143982 323.232391,281.295044 314.660278,287.456512 &#xA;&#x9;C305.923798,293.736053 302.823212,306.065460 306.786377,317.132446 &#xA;&#x9;C310.351074,327.086639 319.923340,333.305023 330.947052,332.827759 &#xA;&#x9;C342.519867,332.326721 351.233093,325.555908 353.957825,314.946625 &#xA;&#x9;C357.053162,302.894562 352.791656,291.825531 342.036926,285.218536 &#xA;z"></path>
<path fill="#020202" opacity="1.000000" stroke="none" d="&#xA;M122.956757,296.000000 &#xA;&#x9;C123.007706,268.849579 123.074219,242.199158 123.056503,215.548798 &#xA;&#x9;C123.055740,214.402756 122.506134,213.096039 121.827972,212.135452 &#xA;&#x9;C110.449669,196.018829 108.922569,178.732468 117.155380,161.133392 &#xA;&#x9;C125.318855,143.682526 140.712585,136.312454 159.124557,135.265045 &#xA;&#x9;C178.317780,134.173187 195.192032,139.573135 206.352295,156.487869 &#xA;&#x9;C222.396408,180.804733 214.224762,225.162689 170.055252,229.958511 &#xA;&#x9;C166.266312,230.369919 162.394821,230.296326 158.578903,230.104843 &#xA;&#x9;C154.938477,229.922180 151.320572,229.290741 147.244141,228.802872 &#xA;&#x9;C147.244141,271.024963 147.244141,313.210175 147.244141,355.681610 &#xA;&#x9;C139.060593,355.681610 131.318588,355.681610 122.956757,355.681610 &#xA;&#x9;C122.956757,336.003387 122.956757,316.251678 122.956757,296.000000 &#xA;M157.539139,207.203781 &#xA;&#x9;C168.460190,209.014740 177.761444,206.395248 184.025253,196.748962 &#xA;&#x9;C189.719452,187.979874 189.134186,175.339249 183.108856,167.109695 &#xA;&#x9;C176.841446,158.549500 165.029221,155.266403 153.974213,159.011993 &#xA;&#x9;C144.234985,162.311783 137.886002,171.927032 138.085449,183.074799 &#xA;&#x9;C138.301331,195.140106 144.822174,203.520554 157.539139,207.203781 &#xA;z"></path>
<path fill="#020202" opacity="1.000000" stroke="none" d="&#xA;M281.084167,185.023346 &#xA;&#x9;C280.780090,180.061020 280.977448,175.488724 280.066071,171.149261 &#xA;&#x9;C278.243866,162.472885 272.337799,157.774399 263.986115,157.528961 &#xA;&#x9;C255.491669,157.279327 248.445114,162.331635 246.280197,170.756699 &#xA;&#x9;C245.381607,174.253662 245.125351,177.990753 245.095856,181.622879 &#xA;&#x9;C244.971649,196.917145 245.043304,212.212997 245.043304,227.754578 &#xA;&#x9;C236.333298,227.754578 227.917511,227.754578 219.208496,227.754578 &#xA;&#x9;C219.208496,197.861969 219.208496,167.957657 219.208496,137.440842 &#xA;&#x9;C224.921219,137.440842 230.699570,137.337631 236.466202,137.550888 &#xA;&#x9;C237.342484,137.583282 238.495270,138.937042 238.940872,139.937607 &#xA;&#x9;C239.798233,141.862747 240.241058,143.972519 240.904617,146.167099 &#xA;&#x9;C257.507172,129.980728 285.936035,131.774170 298.795776,149.623001 &#xA;&#x9;C307.211700,139.726257 318.117706,135.216949 330.889313,135.065659 &#xA;&#x9;C352.892120,134.805008 368.398285,149.270889 368.955139,171.326096 &#xA;&#x9;C369.425934,189.973038 369.052155,208.641296 369.052155,227.651489 &#xA;&#x9;C360.550598,227.651489 352.010986,227.651489 343.021362,227.651489 &#xA;&#x9;C343.021362,212.196457 343.071411,196.752792 342.981445,181.309952 &#xA;&#x9;C342.962219,178.006042 342.775574,174.631119 342.077057,171.416916 &#xA;&#x9;C340.155029,162.572617 334.150238,157.633469 325.679291,157.501358 &#xA;&#x9;C317.380463,157.371948 310.478088,162.311783 308.262604,170.487457 &#xA;&#x9;C307.362366,173.809647 307.074432,177.380310 307.046692,180.842224 &#xA;&#x9;C306.922546,196.329422 306.992706,211.818161 306.992706,227.654480 &#xA;&#x9;C298.501312,227.654480 290.105225,227.654480 281.084167,227.654480 &#xA;&#x9;C281.084167,213.699432 281.084167,199.609055 281.084167,185.023346 &#xA;z"></path>
<path fill="#FCFCFC" opacity="1.000000" stroke="none" d="&#xA;M246.315399,328.431824 &#xA;&#x9;C235.526978,334.540680 224.607254,334.139374 216.587051,327.576324 &#xA;&#x9;C208.745987,321.159882 205.630234,309.127899 209.343430,298.356781 &#xA;&#x9;C212.286652,289.819214 218.266449,284.390411 227.303375,282.966187 &#xA;&#x9;C237.943054,281.289368 246.807190,284.582825 252.845871,293.711487 &#xA;&#x9;C254.558411,296.300323 256.194855,297.233246 259.192291,297.136780 &#xA;&#x9;C265.996979,296.917816 272.813507,297.067810 279.588440,297.067810 &#xA;&#x9;C279.588440,303.577606 279.588440,309.807861 279.588440,316.690308 &#xA;&#x9;C272.961029,316.690308 266.207672,316.811676 259.462311,316.632355 &#xA;&#x9;C256.646362,316.557526 255.190582,317.414368 253.713043,319.993225 &#xA;&#x9;C251.946548,323.076416 249.024490,325.497498 246.315399,328.431824 &#xA;z"></path>
<path fill="#FCFCFC" opacity="1.000000" stroke="none" d="&#xA;M342.355133,285.427002 &#xA;&#x9;C352.791656,291.825531 357.053162,302.894562 353.957825,314.946625 &#xA;&#x9;C351.233093,325.555908 342.519867,332.326721 330.947052,332.827759 &#xA;&#x9;C319.923340,333.305023 310.351074,327.086639 306.786377,317.132446 &#xA;&#x9;C302.823212,306.065460 305.923798,293.736053 314.660278,287.456512 &#xA;&#x9;C323.232391,281.295044 332.516144,281.143982 342.355133,285.427002 &#xA;z"></path>
<path fill="#FCFCFC" opacity="1.000000" stroke="none" d="&#xA;M157.134369,207.119812 &#xA;&#x9;C144.822174,203.520554 138.301331,195.140106 138.085449,183.074799 &#xA;&#x9;C137.886002,171.927032 144.234985,162.311783 153.974213,159.011993 &#xA;&#x9;C165.029221,155.266403 176.841446,158.549500 183.108856,167.109695 &#xA;&#x9;C189.134186,175.339249 189.719452,187.979874 184.025253,196.748962 &#xA;&#x9;C177.761444,206.395248 168.460190,209.014740 157.134369,207.119812 &#xA;z"></path>
</svg>